<?xml version="1.0" encoding="iso-8859-1"?>
<!-- Uploaded to: SVG Repo, www.svgrepo.com, Generator: SVG Repo Mixer Tools -->
<!DOCTYPE svg PUBLIC "-//W3C//DTD SVG 1.1//EN" "http://www.w3.org/Graphics/SVG/1.1/DTD/svg11.dtd">
<svg fill="#000000" version="1.1" id="Capa_1" xmlns="http://www.w3.org/2000/svg" xmlns:xlink="http://www.w3.org/1999/xlink" 
	 width="800px" height="800px" viewBox="0 0 462.045 462.045"
	 xml:space="preserve">
<g>
	<g id="Layer_2_10_">
		<g>
			<polygon points="403.103,167.291 415.521,170.573 436.046,161.548 407.438,96.483 386.001,105.909 380.901,125.196 
				412.054,133.431 			"/>
			<polygon points="58.941,167.291 49.99,133.431 81.142,125.196 76.043,105.909 54.606,96.483 25.999,161.548 46.524,170.573 			
				"/>
			<polygon points="72.381,394.957 53.8,386.957 31.006,396.98 59.613,462.045 86.768,450.105 91.807,438.404 59.638,424.555 			"/>
			<path d="M383.728,417.119l-12.744-29.598l19.477-8.383l-76.518-33.644V215.234l80.691-35.478l-8.908-2.354l8.953-33.861
				l-31.152-8.235l5.838-22.081l-81.98,36.046c17.729-15.628,28.926-38.492,28.926-63.984C316.31,38.184,278.125,0,231.022,0
				s-85.287,38.184-85.287,85.287c0,25.492,11.197,48.355,28.926,63.984L92.68,113.225l5.838,22.081l-31.152,8.235l8.952,33.861
				l-8.908,2.354l80.691,35.478v130.262l-76.516,33.643l19.475,8.385l-12.743,29.596l32.168,13.85l-4.625,10.744l95.326-41.914
				h59.672l95.326,41.914l-4.625-10.744L383.728,417.119z M267.444,60.779c6.545,0,11.85,5.305,11.85,11.849
				s-5.305,11.849-11.85,11.849c-6.543,0-11.848-5.305-11.848-11.849S260.901,60.779,267.444,60.779z M231.022,121.655
				c9.219,0,17.181-3.574,20.286-9.105l9.185,5.154c-5.013,8.933-16.306,14.482-29.469,14.482c-13.164,0-24.457-5.549-29.469-14.482
				l9.185-5.154C213.841,118.081,221.803,121.655,231.022,121.655z M194.599,60.779c6.543,0,11.848,5.305,11.848,11.849
				s-5.305,11.849-11.848,11.849c-6.544,0-11.849-5.305-11.849-11.849S188.054,60.779,194.599,60.779z M231.022,339.286
				c-5.234,0-9.477-4.243-9.477-9.478c0-5.233,4.243-9.477,9.477-9.477s9.477,4.243,9.477,9.477
				C240.499,335.043,236.256,339.286,231.022,339.286z M231.022,291.902c-5.234,0-9.477-4.243-9.477-9.478
				c0-5.233,4.243-9.478,9.477-9.478s9.477,4.244,9.477,9.478C240.499,287.659,236.256,291.902,231.022,291.902z M231.022,244.52
				c-5.234,0-9.477-4.244-9.477-9.478c0-5.234,4.243-9.477,9.477-9.477s9.477,4.243,9.477,9.477
				C240.499,240.275,236.256,244.52,231.022,244.52z"/>
			<polygon points="389.663,394.957 402.405,424.555 370.237,438.404 375.276,450.105 402.431,462.045 431.038,396.98 
				408.243,386.957 			"/>
		</g>
	</g>
</g>
</svg>