<?xml version="1.0" encoding="iso-8859-1"?>
<!-- Uploaded to: SVG Repo, www.svgrepo.com, Generator: SVG Repo Mixer Tools -->
<!DOCTYPE svg PUBLIC "-//W3C//DTD SVG 1.1//EN" "http://www.w3.org/Graphics/SVG/1.1/DTD/svg11.dtd">
<svg fill="#000000" version="1.1" id="Capa_1" xmlns="http://www.w3.org/2000/svg" xmlns:xlink="http://www.w3.org/1999/xlink" 
	 width="800px" height="800px" viewBox="0 0 428.639 428.639"
	 xml:space="preserve">
<g>
	<g id="Layer_2_49_">
		<g>
			<path d="M283.707,105.761c0.127-0.636,0.196-1.293,0.196-1.967V74.486c0-3.685-2.026-7.072-5.274-8.814
				c-9.508-5.099-19.048-9.054-28.603-11.881c1.988-4.713,3.043-9.811,3.043-15.041c0-21.367-17.383-38.75-38.75-38.75
				c-21.367,0-38.75,17.383-38.75,38.75c0,5.229,1.055,10.327,3.043,15.04c-9.555,2.827-19.094,6.782-28.602,11.882
				c-3.248,1.741-5.273,5.127-5.273,8.812v29.307c0,0.675,0.068,1.333,0.195,1.971c-58.623,26.521-99.51,85.565-99.51,153.98
				c0,93.129,75.766,168.896,168.896,168.896s168.898-75.768,168.898-168.896C383.218,191.327,342.33,132.283,283.707,105.761z
				 M214.32,20.001c10.34,0,18.75,8.411,18.75,18.75c0,3.407-0.919,6.703-2.634,9.578h-32.234c-1.715-2.875-2.633-6.171-2.633-9.578
				C195.57,28.412,203.982,20.001,214.32,20.001z M164.738,80.6c33.305-16.201,65.852-16.202,99.167,0.001v17.673
				c-15.687-4.827-32.337-7.431-49.584-7.431c-17.248,0-33.896,2.604-49.582,7.431V80.6L164.738,80.6z M214.32,408.639
				c-82.102,0-148.896-66.795-148.896-148.896c0-82.104,66.795-148.898,148.896-148.898c82.104,0,148.898,66.795,148.898,148.898
				C363.218,341.844,296.423,408.639,214.32,408.639z"/>
			<path d="M106.628,256.951c0-23.363,8.967-45.463,25.244-62.229c3.848-3.962,3.756-10.293-0.207-14.141
				c-3.961-3.847-10.295-3.753-14.141,0.208c-19.924,20.519-30.896,47.566-30.896,76.162s10.973,55.644,30.896,76.162
				c1.961,2.021,4.566,3.035,7.176,3.035c2.51,0,5.021-0.939,6.965-2.826c3.963-3.848,4.055-10.179,0.209-14.142
				C115.595,302.416,106.628,280.316,106.628,256.951z"/>
		</g>
	</g>
</g>
</svg>