<?xml version="1.0" encoding="iso-8859-1"?>
<!-- Uploaded to: SVG Repo, www.svgrepo.com, Generator: SVG Repo Mixer Tools -->
<svg height="800px" width="800px" version="1.1" id="Layer_1" xmlns="http://www.w3.org/2000/svg" xmlns:xlink="http://www.w3.org/1999/xlink" 
	 viewBox="0 0 512 512" xml:space="preserve">
<polygon style="fill:#E1B658;" points="315.798,326.383 196.202,326.383 256.001,368.778 "/>
<path style="fill:#129A58;" d="M196.864,250.813l53.05-7.985v-1.242l-14.47-12.155c-2.574-2.163-2.906-6-0.745-8.575
	c2.163-2.572,6.002-2.908,8.575-0.745l6.641,5.578v-11.056l-14.469-12.152c-2.574-2.163-2.908-6.002-0.747-8.576
	c2.163-2.572,6.001-2.906,8.575-0.747l6.641,5.578v-11.055l-14.469-12.152c-2.574-2.163-2.908-6.002-0.747-8.576
	c2.163-2.572,6.001-2.908,8.575-0.747l6.641,5.578v-20.881c0-3.361,2.725-6.086,6.086-6.086s6.086,2.725,6.086,6.086v20.879
	l6.637-5.575c2.574-2.165,6.412-1.829,8.575,0.745c2.161,2.574,1.829,6.412-0.745,8.575l-14.466,12.152v11.055l6.637-5.575
	c2.574-2.165,6.412-1.83,8.575,0.745c2.161,2.574,1.829,6.412-0.745,8.575l-14.466,12.152v11.056l6.637-5.576
	c2.572-2.165,6.412-1.83,8.575,0.745c2.163,2.572,1.829,6.412-0.745,8.575l-14.466,12.155v1.242l53.049,7.985l-24.35-43.006
	c-1.066-1.884-1.052-4.193,0.038-6.063s3.093-3.02,5.258-3.02h8.426l-31.937-47.762c-1.248-1.866-1.367-4.27-0.31-6.251
	c1.059-1.98,3.123-3.217,5.368-3.217h1.72l-23.35-32.143l-23.353,32.143h1.72c2.246,0,4.309,1.238,5.368,3.219
	c1.058,1.98,0.94,4.383-0.308,6.25l-31.937,47.762h8.426c2.165,0,4.167,1.151,5.258,3.02s1.105,4.18,0.038,6.063L196.864,250.813z"
	/>
<path style="fill:#BDF3FF;" d="M362.58,293.215c-5.522,1.916-11.816,3.405-19.52,3.405c-12.547,0-19.089-3.871-24.861-7.287
	c-5.069-3.001-9.447-5.591-18.661-5.591c-9.216,0-13.594,2.591-18.663,5.591c-5.772,3.415-12.314,7.287-24.858,7.287
	c-12.545,0-19.087-3.871-24.86-7.287c-5.069-3-9.447-5.591-18.663-5.591c-9.214,0-13.592,2.59-18.661,5.591
	c-5.772,3.415-12.314,7.287-24.861,7.287c-7.789,0-13.982-1.455-19.539-3.397l29.601,20.988h153.934L362.58,293.215z"/>
<polygon style="fill:#E1B658;" points="466.665,175.76 466.665,219.419 495.768,198.786 "/>
<path style="fill:#BDF3FF;" d="M83.111,227.798c3-5.069,5.59-9.447,5.59-18.663c0-9.214-2.59-13.592-5.588-18.663
	c-3.415-5.772-7.286-12.314-7.286-24.862c0-12.548,3.871-19.091,7.286-24.865c3-5.07,5.59-9.448,5.59-18.665
	c0-9.216-2.59-13.595-5.59-18.665c-3.415-5.772-7.286-12.314-7.286-24.862c0-3.361,2.725-6.086,6.086-6.086
	c12.544,0,19.085,3.871,24.856,7.286c5.069,3,9.446,5.59,18.659,5.59s13.591-2.59,18.659-5.59
	c5.771-3.414,12.313-7.286,24.857-7.286c12.545,0,19.087,3.871,24.858,7.286c5.069,3,9.447,5.59,18.661,5.59
	c9.216,0,13.594-2.59,18.663-5.59c5.772-3.414,12.314-7.286,24.86-7.286c12.547,0,19.089,3.871,24.861,7.286
	c5.069,3,9.447,5.59,18.661,5.59c9.216,0,13.595-2.59,18.664-5.59c5.772-3.415,12.313-7.286,24.86-7.286
	c12.548,0,19.091,3.869,24.864,7.286c5.07,3,9.448,5.59,18.665,5.59c9.217,0,13.596-2.59,18.667-5.59
	c5.772-3.415,12.315-7.286,24.862-7.286c3.361,0,6.086,2.725,6.086,6.086c0,12.547-3.871,19.09-7.286,24.862
	c-3,5.07-5.59,9.448-5.59,18.665c0,9.216,2.59,13.595,5.59,18.665c3.415,5.774,7.286,12.316,7.286,24.865
	c0,12.547-3.871,19.09-7.286,24.862c-2.998,5.07-5.588,9.447-5.588,18.663c0,9.214,2.59,13.594,5.59,18.663
	c2.267,3.83,4.725,8.016,6.127,14.06l19.477-13.81V52.022H57.507v176.026l19.481,13.811
	C78.387,235.817,80.845,231.628,83.111,227.798z"/>
<g>
	<path style="fill:#EFD18D;" d="M493.409,450.032c4.003-4.793,6.42-10.955,6.42-17.673V210.828L310.261,345.229L493.409,450.032z"/>
	<path style="fill:#EFD18D;" d="M12.172,210.828v221.529c0,6.718,2.417,12.878,6.419,17.671l183.15-104.8L12.172,210.828z"/>
</g>
<polygon style="fill:#E1B658;" points="45.335,175.759 16.232,198.786 45.335,219.419 "/>
<path style="fill:#FFFFFF;" d="M393.056,271.608l30.848-21.871c-0.492-7.279-2.827-11.242-5.49-15.741
	c-3.415-5.772-7.286-12.314-7.286-24.861c0-12.545,3.871-19.087,7.286-24.86c3-5.07,5.59-9.448,5.59-18.665
	c0-9.217-2.59-13.598-5.59-18.668c-3.414-5.774-7.284-12.314-7.284-24.862c0-12.547,3.871-19.09,7.286-24.862
	c2.171-3.669,4.121-6.985,5.037-12.027c-5.041,0.917-8.357,2.866-12.027,5.038c-5.772,3.415-12.315,7.286-24.864,7.286
	c-12.547,0-19.09-3.869-24.862-7.286c-5.07-3-9.45-5.59-18.667-5.59c-9.214,0-13.592,2.59-18.661,5.59
	c-5.772,3.414-12.314,7.286-24.862,7.286c-12.545,0-19.087-3.869-24.86-7.286c-5.069-3-9.447-5.59-18.663-5.59
	c-9.214,0-13.592,2.59-18.661,5.59c-5.772,3.414-12.314,7.286-24.861,7.286c-12.545,0-19.087-3.871-24.86-7.286
	c-5.069-3-9.446-5.59-18.66-5.59c-9.213,0-13.591,2.59-18.659,5.59c-5.771,3.414-12.313,7.286-24.857,7.286
	c-12.545,0-19.086-3.871-24.858-7.286c-3.667-2.169-6.981-4.121-12.018-5.037c0.916,5.041,2.866,8.357,5.037,12.026
	c3.415,5.772,7.286,12.314,7.286,24.862c0,12.547-3.871,19.089-7.284,24.862c-3,5.07-5.59,9.45-5.59,18.668
	c0,9.216,2.59,13.595,5.59,18.665c3.415,5.772,7.286,12.313,7.286,24.86c0,12.545-3.871,19.089-7.286,24.861
	c-2.663,4.5-4.999,8.462-5.49,15.741l30.846,21.869c11.054,0.361,18.855,3.676,26.405,6.889c7.191,3.062,13.983,5.952,23.623,5.952
	c9.214,0,13.592-2.591,18.663-5.591c5.772-3.415,12.314-7.287,24.86-7.287c12.547,0,19.089,3.871,24.861,7.287
	c3.799,2.249,7.21,4.267,12.559,5.137v-28.856l-63.598,9.571c-0.303,0.045-0.606,0.068-0.908,0.068
	c-1.984,0-3.867-0.971-5.014-2.637c-1.32-1.918-1.43-4.421-0.281-6.447l25.363-44.798h-9.378c-2.246,0-4.31-1.238-5.368-3.219
	c-1.058-1.98-0.94-4.383,0.31-6.25l31.937-47.762h-2.273c-2.288,0-4.383-1.283-5.422-3.323c-1.04-2.04-0.847-4.489,0.499-6.34
	l35.297-48.583c1.973-2.72,5.78-3.323,8.502-1.347c0.533,0.387,0.958,0.859,1.324,1.363l0.022-0.016l35.294,48.583
	c1.346,1.852,1.538,4.301,0.499,6.34c-1.039,2.04-3.134,3.323-5.422,3.323h-2.279l31.937,47.762c1.248,1.866,1.367,4.27,0.308,6.251
	c-1.058,1.98-3.121,3.217-5.368,3.217h-9.377l25.365,44.798c1.147,2.026,1.037,4.529-0.283,6.447
	c-1.146,1.666-3.03,2.637-5.014,2.637c-0.302,0-0.605-0.023-0.908-0.068l-63.598-9.571v28.862c5.367-0.867,8.784-2.889,12.59-5.141
	c5.772-3.416,12.314-7.288,24.861-7.288c12.545,0,19.089,3.871,24.86,7.287c5.07,3,9.447,5.591,18.663,5.591
	c9.638,0,16.423-2.892,23.609-5.952C373.864,275.431,381.969,271.983,393.056,271.608z M382.211,186.206
	c1.123-1.123,2.691-1.772,4.301-1.772c1.596,0,3.165,0.649,4.301,1.772c1.136,1.136,1.785,2.705,1.785,4.314
	c0,1.596-0.649,3.165-1.785,4.301c-1.136,1.136-2.705,1.785-4.301,1.785c-1.609,0-3.165-0.649-4.301-1.785
	c-1.136-1.136-1.785-2.705-1.785-4.301C380.427,188.91,381.076,187.342,382.211,186.206z M129.802,194.821
	c-1.136,1.136-2.705,1.785-4.314,1.785c-1.596,0-3.165-0.649-4.301-1.785c-1.136-1.136-1.785-2.705-1.785-4.301
	c0-1.609,0.649-3.18,1.785-4.314c1.136-1.123,2.705-1.772,4.301-1.772c1.609,0,3.178,0.649,4.314,1.772
	c1.123,1.136,1.772,2.705,1.772,4.314C131.574,192.116,130.925,193.685,129.802,194.821z M157.648,243.049
	c-1.136,1.136-2.705,1.785-4.301,1.785c-1.609,0-3.178-0.649-4.301-1.785c-1.136-1.136-1.785-2.705-1.785-4.301
	c0-1.609,0.649-3.166,1.785-4.302c1.123-1.136,2.691-1.784,4.301-1.784c1.596,0,3.165,0.648,4.301,1.784s1.785,2.691,1.785,4.302
	C159.434,240.345,158.784,241.915,157.648,243.049z M157.648,119.651c-1.136,1.136-2.705,1.785-4.301,1.785
	c-1.609,0-3.178-0.649-4.301-1.785c-1.136-1.136-1.785-2.705-1.785-4.301c0-1.609,0.649-3.18,1.785-4.314
	c1.123-1.123,2.691-1.772,4.301-1.772c1.596,0,3.165,0.648,4.301,1.772c1.136,1.136,1.785,2.705,1.785,4.314
	C159.434,116.946,158.784,118.515,157.648,119.651z M178.53,169.908c-1.136,1.136-2.705,1.785-4.301,1.785
	c-1.609,0-3.165-0.649-4.314-1.785c-1.123-1.136-1.772-2.705-1.772-4.301c0-1.611,0.649-3.18,1.772-4.316
	c1.136-1.123,2.705-1.77,4.314-1.77c1.596,0,3.165,0.648,4.301,1.77c1.136,1.136,1.785,2.705,1.785,4.316
	C180.317,167.203,179.668,168.774,178.53,169.908z M342.085,169.908c-1.136,1.136-2.705,1.785-4.314,1.785
	c-1.596,0-3.165-0.649-4.301-1.785c-1.136-1.136-1.785-2.705-1.785-4.301c0-1.611,0.649-3.18,1.785-4.316
	c1.136-1.123,2.705-1.77,4.301-1.77c1.609,0,3.178,0.648,4.314,1.77c1.123,1.136,1.785,2.705,1.785,4.316
	C343.869,167.203,343.207,168.774,342.085,169.908z M362.953,243.049c-1.123,1.136-2.691,1.785-4.301,1.785
	c-1.596,0-3.165-0.649-4.301-1.785c-1.136-1.136-1.785-2.691-1.785-4.301c0-1.609,0.649-3.18,1.785-4.302
	c1.136-1.136,2.705-1.784,4.301-1.784c1.609,0,3.178,0.648,4.301,1.784c1.136,1.123,1.785,2.691,1.785,4.302
	C364.739,240.345,364.089,241.915,362.953,243.049z M362.953,119.651c-1.123,1.136-2.691,1.785-4.301,1.785
	c-1.596,0-3.165-0.649-4.301-1.785c-1.136-1.136-1.785-2.705-1.785-4.301c0-1.609,0.649-3.18,1.785-4.314
	c1.136-1.123,2.705-1.772,4.301-1.772c1.609,0,3.178,0.648,4.301,1.772c1.136,1.136,1.785,2.705,1.785,4.314
	C364.739,116.946,364.089,118.515,362.953,119.651z"/>
<path style="fill:#EFD18D;" d="M259.521,381.203l-0.014-0.019c-2.049,1.451-4.859,1.555-7.026,0.019l-39.795-28.212L29.335,457.907
	c3.23,1.327,6.758,2.071,10.461,2.071h432.409c3.703,0,7.233-0.744,10.463-2.071L299.317,352.99L259.521,381.203z"/>
<g>
	<path style="fill:#4F413B;" d="M509.691,194.28l-43.025-34.044V45.936c0-3.361-2.725-6.086-6.086-6.086H51.421
		c-3.361,0-6.086,2.725-6.086,6.086v114.298L2.31,194.28c-1.512,1.198-2.278,2.969-2.283,4.761L0,199.053v233.305
		C0,454.3,17.852,472.15,39.795,472.15h432.409c21.944,0,39.796-17.85,39.796-39.792V199.053l-0.027-0.014
		C511.968,197.248,511.203,195.478,509.691,194.28z M466.665,175.76l29.102,23.026l-29.102,20.633V175.76z M57.507,52.022h396.988
		v176.026l-19.477,13.81c-1.401-6.046-3.861-10.23-6.127-14.06c-3-5.069-5.59-9.447-5.59-18.663c0-9.214,2.59-13.592,5.588-18.663
		c3.415-5.772,7.286-12.314,7.286-24.862s-3.871-19.091-7.286-24.865c-3-5.07-5.59-9.448-5.59-18.665
		c0-9.216,2.59-13.595,5.59-18.665c3.415-5.772,7.286-12.314,7.286-24.862c0-3.361-2.725-6.086-6.086-6.086
		c-12.547,0-19.09,3.869-24.862,7.286c-5.07,3-9.45,5.59-18.667,5.59c-9.217,0-13.595-2.59-18.665-5.59
		c-5.772-3.415-12.316-7.286-24.864-7.286c-12.545,0-19.087,3.869-24.86,7.286c-5.07,3-9.448,5.59-18.664,5.59
		c-9.214,0-13.592-2.59-18.661-5.59c-5.772-3.414-12.314-7.286-24.861-7.286c-12.545,0-19.087,3.871-24.86,7.286
		c-5.069,3-9.447,5.59-18.663,5.59c-9.214,0-13.592-2.59-18.661-5.59c-5.772-3.414-12.313-7.286-24.858-7.286
		c-12.544,0-19.086,3.871-24.857,7.286c-5.069,3-9.446,5.59-18.659,5.59s-13.591-2.59-18.659-5.59
		c-5.771-3.414-12.311-7.286-24.856-7.286c-3.361,0-6.086,2.725-6.086,6.086c0,12.547,3.871,19.09,7.286,24.862
		c3,5.07,5.59,9.448,5.59,18.665c0,9.216-2.59,13.595-5.59,18.665c-3.415,5.774-7.286,12.316-7.286,24.865
		c0,12.547,3.871,19.09,7.286,24.862c2.998,5.07,5.588,9.447,5.588,18.663c0,9.214-2.59,13.594-5.59,18.663
		c-2.267,3.83-4.724,8.019-6.124,14.062l-19.482-13.81V52.022z M179.033,314.211l-29.601-20.988
		c5.557,1.942,11.75,3.397,19.539,3.397c12.547,0,19.089-3.871,24.861-7.287c5.069-3.001,9.447-5.591,18.661-5.591
		c9.216,0,13.594,2.591,18.663,5.591c5.772,3.415,12.313,7.287,24.86,7.287c12.545,0,19.087-3.871,24.858-7.287
		c5.069-3,9.447-5.591,18.663-5.591c9.214,0,13.592,2.59,18.661,5.591c5.772,3.415,12.314,7.287,24.861,7.287
		c7.704,0,13.998-1.489,19.52-3.406l-29.612,20.994H179.033V314.211z M315.798,326.383l-59.798,42.397l-59.799-42.397
		L315.798,326.383L315.798,326.383z M221.175,201.743c-1.09-1.87-3.093-3.02-5.258-3.02h-8.426l31.937-47.762
		c1.248-1.866,1.367-4.27,0.308-6.25c-1.059-1.981-3.123-3.219-5.368-3.219h-1.72l23.353-32.143l23.35,32.143h-1.72
		c-2.246,0-4.31,1.238-5.368,3.217c-1.058,1.981-0.94,4.385,0.31,6.251l31.937,47.762h-8.426c-2.165,0-4.167,1.151-5.258,3.02
		c-1.09,1.872-1.105,4.18-0.038,6.063l24.35,43.006l-53.049-7.985v-1.242l14.466-12.155c2.574-2.163,2.906-6.002,0.745-8.575
		c-2.163-2.574-6.002-2.909-8.575-0.745l-6.637,5.576V214.63l14.466-12.152c2.574-2.163,2.906-6.001,0.745-8.575
		c-2.163-2.574-6.002-2.909-8.575-0.745l-6.637,5.575v-11.055l14.466-12.152c2.574-2.163,2.906-6,0.745-8.575
		c-2.163-2.572-6.002-2.909-8.575-0.745l-6.637,5.575v-20.879c0-3.361-2.725-6.086-6.086-6.086c-3.361,0-6.086,2.725-6.086,6.086
		v20.881l-6.641-5.578c-2.574-2.163-6.412-1.827-8.575,0.747c-2.163,2.574-1.829,6.413,0.747,8.576l14.469,12.152v11.055
		l-6.641-5.578c-2.574-2.161-6.412-1.827-8.575,0.747c-2.163,2.574-1.829,6.413,0.747,8.576l14.469,12.152v11.056l-6.641-5.578
		c-2.574-2.164-6.412-1.829-8.575,0.745c-2.161,2.574-1.829,6.412,0.745,8.575l14.47,12.155v1.242l-53.05,7.985l24.348-43.006
		C222.28,205.923,222.265,203.613,221.175,201.743z M343.06,284.448c-9.216,0-13.592-2.591-18.663-5.591
		c-5.772-3.415-12.314-7.287-24.86-7.287c-12.547,0-19.089,3.871-24.861,7.288c-3.806,2.252-7.222,4.274-12.59,5.141v-28.862
		l63.598,9.571c0.303,0.045,0.606,0.068,0.908,0.068c1.983,0,3.867-0.971,5.014-2.637c1.32-1.918,1.43-4.421,0.283-6.447
		l-25.365-44.798h9.377c2.246,0,4.309-1.237,5.368-3.217c1.059-1.981,0.94-4.385-0.308-6.251l-31.938-47.762h2.273
		c2.288,0,4.383-1.283,5.422-3.323c1.04-2.04,0.847-4.487-0.499-6.34l-35.294-48.583l-0.022,0.016
		c-0.366-0.504-0.793-0.976-1.324-1.363c-2.721-1.976-6.527-1.373-8.502,1.347l-35.297,48.583c-1.346,1.85-1.538,4.301-0.499,6.34
		c1.039,2.04,3.134,3.323,5.422,3.323h2.273l-31.937,47.762c-1.248,1.866-1.367,4.27-0.31,6.25c1.059,1.981,3.123,3.219,5.368,3.219
		h9.378l-25.363,44.798c-1.147,2.026-1.037,4.529,0.281,6.447c1.146,1.666,3.03,2.637,5.014,2.637c0.302,0,0.605-0.023,0.908-0.068
		l63.598-9.571v28.856c-5.349-0.87-8.76-2.888-12.559-5.137c-5.772-3.415-12.314-7.287-24.861-7.287
		c-12.545,0-19.089,3.871-24.86,7.287c-5.07,3-9.447,5.591-18.663,5.591c-9.642,0-16.432-2.892-23.623-5.952
		c-7.551-3.213-15.352-6.528-26.405-6.889l-30.846-21.869c0.491-7.279,2.827-11.242,5.49-15.741
		c3.415-5.772,7.286-12.314,7.286-24.861c0-12.545-3.871-19.087-7.286-24.86c-3-5.07-5.59-9.448-5.59-18.665
		c0-9.217,2.59-13.598,5.59-18.668c3.414-5.774,7.284-12.314,7.284-24.862c0-12.547-3.871-19.09-7.286-24.862
		c-2.171-3.669-4.121-6.985-5.037-12.026c5.037,0.916,8.35,2.866,12.018,5.037c5.772,3.414,12.313,7.286,24.858,7.286
		c12.544,0,19.086-3.871,24.857-7.286c5.069-3,9.446-5.59,18.659-5.59c9.214,0,13.591,2.59,18.66,5.59
		c5.772,3.414,12.313,7.286,24.86,7.286c12.547,0,19.089-3.871,24.861-7.286c5.069-3,9.447-5.59,18.661-5.59
		c9.216,0,13.594,2.59,18.663,5.59c5.772,3.415,12.314,7.286,24.86,7.286c12.547,0,19.09-3.871,24.862-7.286
		c5.069-3,9.447-5.59,18.661-5.59c9.217,0,13.596,2.59,18.667,5.59c5.772,3.415,12.316,7.286,24.862,7.286
		c12.548,0,19.091-3.869,24.864-7.286c3.669-2.171,6.987-4.121,12.027-5.038c-0.916,5.041-2.866,8.358-5.037,12.027
		c-3.415,5.772-7.286,12.314-7.286,24.862c0,12.547,3.871,19.089,7.284,24.862c3,5.07,5.59,9.45,5.59,18.668
		c0,9.216-2.59,13.595-5.59,18.665c-3.415,5.772-7.286,12.313-7.286,24.86c0,12.545,3.871,19.089,7.286,24.861
		c2.663,4.5,4.997,8.462,5.49,15.741l-30.848,21.871c-11.086,0.375-19.191,3.823-26.388,6.888
		C359.483,281.557,352.696,284.448,343.06,284.448z M45.335,175.759v43.66l-29.102-20.633L45.335,175.759z M12.172,432.358V210.828
		l189.569,134.401L18.591,450.029C14.589,445.237,12.172,439.075,12.172,432.358z M472.204,459.978H39.795
		c-3.702,0-7.232-0.744-10.461-2.071l183.352-104.916l39.795,28.212c2.167,1.538,4.977,1.434,7.026-0.019l0.014,0.019l39.796-28.214
		l183.35,104.917C479.437,459.234,475.907,459.978,472.204,459.978z M499.828,432.358c0,6.719-2.417,12.879-6.42,17.673
		L310.261,345.229l189.568-134.401v221.529H499.828z"/>
	<path style="fill:#4F413B;" d="M125.488,184.435c-1.596,0-3.165,0.649-4.301,1.772c-1.136,1.136-1.785,2.705-1.785,4.314
		c0,1.596,0.649,3.165,1.785,4.301s2.705,1.785,4.301,1.785c1.609,0,3.178-0.649,4.314-1.785c1.123-1.136,1.772-2.705,1.772-4.301
		c0-1.609-0.649-3.18-1.772-4.314C128.665,185.083,127.098,184.435,125.488,184.435z"/>
	<path style="fill:#4F413B;" d="M153.347,232.664c-1.609,0-3.178,0.648-4.301,1.784c-1.136,1.136-1.785,2.691-1.785,4.302
		c0,1.596,0.649,3.165,1.785,4.301c1.123,1.136,2.691,1.785,4.301,1.785c1.596,0,3.165-0.649,4.301-1.785
		c1.136-1.136,1.785-2.705,1.785-4.301c0-1.609-0.649-3.166-1.785-4.302C156.514,233.312,154.943,232.664,153.347,232.664z"/>
	<path style="fill:#4F413B;" d="M174.231,159.523c-1.609,0-3.178,0.648-4.314,1.77c-1.123,1.136-1.772,2.705-1.772,4.316
		c0,1.596,0.649,3.165,1.772,4.301c1.15,1.136,2.705,1.785,4.314,1.785c1.596,0,3.165-0.649,4.301-1.785s1.785-2.705,1.785-4.301
		c0-1.611-0.649-3.18-1.785-4.316C177.396,160.171,175.825,159.523,174.231,159.523z"/>
	<path style="fill:#4F413B;" d="M153.347,109.265c-1.609,0-3.178,0.648-4.301,1.772c-1.136,1.136-1.785,2.705-1.785,4.314
		c0,1.596,0.649,3.165,1.785,4.301c1.123,1.136,2.691,1.785,4.301,1.785c1.596,0,3.165-0.649,4.301-1.785s1.785-2.705,1.785-4.301
		c0-1.609-0.649-3.18-1.785-4.314C156.514,109.913,154.943,109.265,153.347,109.265z"/>
	<path style="fill:#4F413B;" d="M386.513,196.607c1.596,0,3.165-0.649,4.301-1.785c1.136-1.136,1.785-2.705,1.785-4.301
		c0-1.609-0.649-3.18-1.785-4.314c-1.136-1.123-2.705-1.772-4.301-1.772c-1.609,0-3.178,0.649-4.301,1.772
		c-1.136,1.136-1.785,2.705-1.785,4.314c0,1.596,0.649,3.165,1.785,4.301C383.347,195.957,384.904,196.607,386.513,196.607z"/>
	<path style="fill:#4F413B;" d="M358.652,232.664c-1.596,0-3.165,0.648-4.301,1.784c-1.136,1.123-1.785,2.691-1.785,4.302
		c0,1.608,0.649,3.165,1.785,4.301c1.136,1.136,2.705,1.785,4.301,1.785c1.609,0,3.178-0.649,4.301-1.785
		c1.136-1.136,1.785-2.705,1.785-4.301c0-1.609-0.649-3.18-1.785-4.302C361.831,233.312,360.262,232.664,358.652,232.664z"/>
	<path style="fill:#4F413B;" d="M337.77,159.523c-1.596,0-3.165,0.648-4.301,1.77c-1.136,1.136-1.785,2.705-1.785,4.316
		c0,1.596,0.649,3.165,1.785,4.301c1.136,1.136,2.705,1.785,4.301,1.785c1.609,0,3.178-0.649,4.314-1.785
		c1.123-1.136,1.785-2.705,1.785-4.301c0-1.611-0.663-3.18-1.785-4.316C340.949,160.171,339.38,159.523,337.77,159.523z"/>
	<path style="fill:#4F413B;" d="M358.652,109.265c-1.596,0-3.165,0.648-4.301,1.772c-1.136,1.136-1.785,2.705-1.785,4.314
		c0,1.596,0.649,3.165,1.785,4.301c1.136,1.136,2.705,1.785,4.301,1.785c1.609,0,3.178-0.649,4.301-1.785
		c1.136-1.136,1.785-2.705,1.785-4.301c0-1.609-0.649-3.18-1.785-4.314C361.831,109.913,360.262,109.265,358.652,109.265z"/>
</g>
</svg>